<svg width="132" height="132" viewBox="0 0 132 132" fill="none" xmlns="http://www.w3.org/2000/svg">
<rect x="0.582031" y="0.574219" width="130.851" height="130.851" rx="65.4255" fill="#F4F6F8"/>
<path d="M85.4675 30.0996H48.5608C38.3745 30.0996 30.1074 38.3298 30.1074 48.4791V70.5494V74.24C30.1074 84.3894 38.3745 92.6196 48.5608 92.6196H54.0968C55.0933 92.6196 56.4219 93.2839 57.0493 94.0958L62.5853 101.44C65.0212 104.688 69.0071 104.688 71.4429 101.44L76.9789 94.0958C77.6802 93.1732 78.7874 92.6196 79.9315 92.6196H85.4675C95.6537 92.6196 103.921 84.3894 103.921 74.24V48.4791C103.921 38.3298 95.6537 30.0996 85.4675 30.0996Z" fill="#3B4A54"/>
</svg>
