<svg width="132" height="132" viewBox="0 0 132 132" fill="none" xmlns="http://www.w3.org/2000/svg">
<rect x="0.660156" y="0.777344" width="130.851" height="130.851" rx="65.4255" fill="#F4F6F8"/>
<path d="M85.5456 30.2998H48.6389C38.4526 30.2998 30.1855 38.53 30.1855 48.6793V70.7495V74.4402C30.1855 84.5896 38.4526 92.8198 48.6389 92.8198H54.1749C55.1714 92.8198 56.5 93.4841 57.1274 94.296L62.6634 101.64C65.0993 104.888 69.0852 104.888 71.521 101.64L77.0571 94.296C77.7583 93.3734 78.8655 92.8198 80.0096 92.8198H85.5456C95.7318 92.8198 103.999 84.5896 103.999 74.4402V48.6793C103.999 38.53 95.7318 30.2998 85.5456 30.2998Z" fill="#C5D0E6"/>
</svg>
