<svg width="142" height="142" viewBox="0 0 142 142" fill="none" xmlns="http://www.w3.org/2000/svg">
<rect x="0.970703" y="0.630859" width="140.76" height="140.76" rx="28.5694" fill="#27353E"/>
<path d="M109.124 53.9422L81.1041 31.5264C75.6285 27.163 67.0728 27.1203 61.64 31.4836L33.6203 53.9422C29.5991 57.1506 27.1608 63.5673 28.0163 68.6151L33.4064 100.87C34.6469 108.099 41.3631 113.789 48.6782 113.789H94.0231C101.253 113.789 108.097 107.971 109.338 100.827L114.728 68.5724C115.498 63.5673 113.059 57.1506 109.124 53.9422ZM74.559 96.6777C74.559 98.4316 73.1046 99.886 71.3507 99.886C69.5968 99.886 68.1423 98.4316 68.1423 96.6777V83.8442C68.1423 82.0903 69.5968 80.6358 71.3507 80.6358C73.1046 80.6358 74.559 82.0903 74.559 83.8442V96.6777Z" fill="white"/>
</svg>
