<svg width="142" height="141" viewBox="0 0 142 141" fill="none" xmlns="http://www.w3.org/2000/svg">
<rect x="0.970703" y="0.125977" width="140.76" height="140.76" rx="28.5694" fill="#3B4A54"/>
<path d="M107.712 62.7629H95.3488C85.2104 62.7629 76.9542 54.5067 76.9542 44.3683V32.0054C76.9542 29.6526 75.0292 27.7275 72.6764 27.7275H54.5384C41.3627 27.7275 30.7109 36.2832 30.7109 51.555V89.4565C30.7109 104.728 41.3627 113.284 54.5384 113.284H88.1621C101.338 113.284 111.99 104.728 111.99 89.4565V67.0407C111.99 64.6879 110.065 62.7629 107.712 62.7629Z" fill="white"/>
<path d="M87.6056 28.6236C85.8517 26.8697 82.8145 28.0675 82.8145 30.5058V45.4354C82.8145 51.6811 88.119 56.8572 94.5785 56.8572C98.6424 56.9 104.289 56.9 109.123 56.9C111.561 56.9 112.845 54.0339 111.134 52.3227C104.974 46.1199 93.9368 34.9548 87.6056 28.6236Z" fill="white"/>
</svg>
